{
    "asset" : {
        "copyright" : "Qky",
        "generator" : "Khronos glTF Blender I/O v1.6.16",
        "version" : "2.0"
    },
    "extensionsUsed" : [
        "KHR_lights_punctual"
    ],
    "extensionsRequired" : [
        "KHR_lights_punctual"
    ],
    "extensions" : {
        "KHR_lights_punctual" : {
            "lights" : [
                {
                    "color" : [
                        1,
                        0.6184913516044617,
                        0.3622833788394928
                    ],
                    "intensity" : 880.4000244140625,
                    "type" : "point",
                    "name" : "Light"
                },
                {
                    "color" : [
                        0.38305094838142395,
                        0.6240811347961426,
                        1
                    ],
                    "intensity" : 945.7000122070312,
                    "type" : "point",
                    "name" : "Light.001"
                }
            ]
        }
    },
    "scene" : 0,
    "scenes" : [
        {
            "name" : "Scene",
            "nodes" : [
                1,
                3,
                5,
                16
            ]
        }
    ],
    "nodes" : [
        {
            "extensions" : {
                "KHR_lights_punctual" : {
                    "light" : 0
                }
            },
            "name" : "Light_Orientation",
            "rotation" : [
                -0.7071067690849304,
                0,
                0,
                0.7071067690849304
            ]
        },
        {
            "children" : [
                0
            ],
            "name" : "Light",
            "rotation" : [
                0.16907575726509094,
                0.7558803558349609,
                -0.27217137813568115,
                0.570947527885437
            ],
            "translation" : [
                -0.1153959259390831,
                2.1028478145599365,
                2.9290459156036377
            ]
        },
        {
            "extensions" : {
                "KHR_lights_punctual" : {
                    "light" : 1
                }
            },
            "name" : "Light.001_Orientation",
            "rotation" : [
                -0.7071067690849304,
                0,
                0,
                0.7071067690849304
            ]
        },
        {
            "children" : [
                2
            ],
            "name" : "Light.001",
            "rotation" : [
                0.16907575726509094,
                0.7558803558349609,
                -0.27217137813568115,
                0.570947527885437
            ],
            "translation" : [
                -0.29170167446136475,
                2.3521900177001953,
                -3.560831069946289
            ]
        },
        {
            "name" : "Camera",
            "rotation" : [
                -0.2547648251056671,
                0.6781398057937622,
                -0.6330414414405823,
                -0.27290990948677063
            ],
            "translation" : [
                -2.996417284011841,
                1.5161068439483643,
                -3.0092110633850098
            ]
        },
        {
            "children" : [
                4
            ],
            "name" : "Empty",
            "rotation" : [
                0,
                0.16604238748550415,
                0,
                0.9861186146736145
            ]
        },
        {
            "mesh" : 0,
            "name" : "Simple Obj"
        },
        {
            "name" : "Feet Right",
            "rotation" : [
                -0.7006879448890686,
                0.07893645018339157,
                0.7006880044937134,
                0.10881972312927246
            ],
            "scale" : [
                1.000000238418579,
                0.9999998807907104,
                1.000000238418579
            ],
            "translation" : [
                5.565932693988576e-15,
                1.7763568394002505e-15,
                -0.125
            ]
        },
        {
            "name" : "Feet Left",
            "rotation" : [
                0.7004876136779785,
                0.02208750881254673,
                -0.7004875540733337,
                0.134708970785141
            ],
            "scale" : [
                1.000000238418579,
                0.9999998807907104,
                1.0000001192092896
            ],
            "translation" : [
                -6.98709261970484e-15,
                -1.1920928955078125e-07,
                0.12500005960464478
            ]
        },
        {
            "name" : "Head",
            "rotation" : [
                0.07820809632539749,
                -0.03697998821735382,
                -0.019463134929537773,
                0.996060848236084
            ],
            "scale" : [
                1.0000001192092896,
                0.9999999403953552,
                1
            ],
            "translation" : [
                2.0510383535746307e-29,
                0.75,
                5.36425415550288e-29
            ]
        },
        {
            "name" : "Hand Left",
            "rotation" : [
                0.6426830291748047,
                -0.2044205218553543,
                -0.7179508209228516,
                0.17238740622997284
            ],
            "scale" : [
                0.9999998211860657,
                0.9999998807907104,
                0.9999999403953552
            ],
            "translation" : [
                2.9802320611338473e-08,
                0.625,
                0.3750000596046448
            ]
        },
        {
            "name" : "Hand Right",
            "rotation" : [
                -0.03365703672170639,
                -0.6674614548683167,
                0.24336189031600952,
                0.7029491066932678
            ],
            "scale" : [
                1.0000001192092896,
                1,
                0.9999999403953552
            ],
            "translation" : [
                -0.058190248906612396,
                0.7029730081558228,
                -0.410703182220459
            ]
        },
        {
            "children" : [
                7,
                8,
                9,
                10,
                11
            ],
            "name" : "Body",
            "rotation" : [
                0.2462601214647293,
                -0.219487264752388,
                0.6733867526054382,
                0.661612868309021
            ],
            "translation" : [
                -0.75,
                -5.960464477539063e-08,
                1.1622807249977996e-07
            ]
        },
        {
            "name" : "Feet Right.001",
            "rotation" : [
                0.5,
                0.5000000596046448,
                -0.5,
                0.4999999403953552
            ],
            "scale" : [
                1,
                0.9999999403953552,
                1
            ],
            "translation" : [
                0.03678373619914055,
                -0.048094283789396286,
                -0.28349095582962036
            ]
        },
        {
            "name" : "Feet Left.001",
            "rotation" : [
                0.5,
                0.5000000596046448,
                -0.5,
                0.4999999403953552
            ],
            "scale" : [
                1,
                0.9999999403953552,
                1
            ],
            "translation" : [
                0.03661609813570976,
                0.00393710657954216,
                0.28430941700935364
            ]
        },
        {
            "children" : [
                12,
                13,
                14
            ],
            "name" : "Root",
            "rotation" : [
                -5.479044418166268e-08,
                -5.479043707623532e-08,
                -0.7071068286895752,
                0.7071067094802856
            ],
            "translation" : [
                -0.4655004143714905,
                0.04846138879656792,
                0.02149297297000885
            ]
        },
        {
            "children" : [
                6,
                15
            ],
            "name" : "Qky Simple",
            "translation" : [
                0.48730218410491943,
                0,
                0
            ]
        }
    ],
    "materials" : [
        {
            "alphaCutoff" : 0.5,
            "alphaMode" : "MASK",
            "doubleSided" : true,
            "emissiveFactor" : [
                0.29999998211860657,
                0.29999998211860657,
                0.29999998211860657
            ],
            "emissiveTexture" : {
                "index" : 0
            },
            "name" : "Material.002",
            "pbrMetallicRoughness" : {
                "baseColorTexture" : {
                    "index" : 1
                },
                "metallicFactor" : 0.15000000596046448,
                "roughnessFactor" : 0.44545453786849976
            }
        }
    ],
    "meshes" : [
        {
            "name" : "Cube.001",
            "primitives" : [
                {
                    "attributes" : {
                        "POSITION" : 0,
                        "NORMAL" : 1,
                        "TEXCOORD_0" : 2,
                        "TEXCOORD_1" : 3
                    },
                    "indices" : 4,
                    "material" : 0
                }
            ]
        }
    ],
    "textures" : [
        {
            "sampler" : 0,
            "source" : 0
        },
        {
            "sampler" : 0,
            "source" : 0
        }
    ],
    "images" : [
        {
            "bufferView" : 5,
            "mimeType" : "image/png",
            "name" : "mattue"
        }
    ],
    "accessors" : [
        {
            "bufferView" : 0,
            "componentType" : 5126,
            "count" : 1472,
            "max" : [
                -0.0841926857829094,
                2.191168785095215,
                0.748541533946991
            ],
            "min" : [
                -1.091434121131897,
                -0.012818653136491776,
                -0.7761110663414001
            ],
            "type" : "VEC3"
        },
        {
            "bufferView" : 1,
            "componentType" : 5126,
            "count" : 1472,
            "type" : "VEC3"
        },
        {
            "bufferView" : 2,
            "componentType" : 5126,
            "count" : 1472,
            "type" : "VEC2"
        },
        {
            "bufferView" : 3,
            "componentType" : 5126,
            "count" : 1472,
            "type" : "VEC2"
        },
        {
            "bufferView" : 4,
            "componentType" : 5123,
            "count" : 2064,
            "type" : "SCALAR"
        }
    ],
    "bufferViews" : [
        {
            "buffer" : 0,
            "byteLength" : 17664,
            "byteOffset" : 0
        },
        {
            "buffer" : 0,
            "byteLength" : 17664,
            "byteOffset" : 17664
        },
        {
            "buffer" : 0,
            "byteLength" : 11776,
            "byteOffset" : 35328
        },
        {
            "buffer" : 0,
            "byteLength" : 11776,
            "byteOffset" : 47104
        },
        {
            "buffer" : 0,
            "byteLength" : 4128,
            "byteOffset" : 58880
        },
        {
            "buffer" : 0,
            "byteLength" : 1908,
            "byteOffset" : 63008
        }
    ],
    "samplers" : [
        {
            "magFilter" : 9728,
            "minFilter" : 9984
        }
    ],
    "buffers" : [
        {
            "byteLength" : 64916,
            "uri" : "data:application/octet-stream;base64,"
        }
    ]
}
