<svg width="49" height="47" viewBox="0 0 49 47" xmlns="http://www.w3.org/2000/svg" fill="currentColor">
<g clip-path="url(#clip0_1301_35)">
<path d="M10.4987 22.3408C9.86761 22.4881 9.29603 22.4325 8.78393 22.1741C8.27182 21.9157 7.83217 21.4925 7.46498 20.9046C7.09596 20.3088 6.81058 19.5786 6.60881 18.7138C6.40704 17.849 6.3446 17.0709 6.42148 16.3793C6.49836 15.6877 6.71793 15.1149 7.08021 14.6607C7.44067 14.1987 7.95201 13.8904 8.61422 13.7359C9.03492 13.6378 9.40394 13.6174 9.72128 13.6748C10.0464 13.7304 10.3066 13.8422 10.5019 14.0102C10.7032 14.1686 10.832 14.3686 10.8883 14.6101C10.9429 14.8438 10.9086 15.049 10.7855 15.2256C10.6606 15.3944 10.4657 15.5097 10.2008 15.5715C10.1426 15.3222 10.0482 15.0936 9.91759 14.8859C9.79476 14.6763 9.62739 14.5223 9.41549 14.4239C9.20955 14.3158 8.95467 14.2973 8.65083 14.3682C8.24571 14.4627 7.94914 14.688 7.76111 15.044C7.57309 15.4 7.48518 15.8682 7.49738 16.4487C7.50776 17.0213 7.6011 17.6854 7.77742 18.4411C7.95556 19.2046 8.17447 19.8436 8.43415 20.3581C8.69383 20.8725 8.99364 21.2421 9.33357 21.4667C9.6813 21.6895 10.0772 21.7491 10.5213 21.6455C10.8329 21.5728 11.0821 21.4613 11.2688 21.3109C11.4633 21.1587 11.6155 20.9836 11.7253 20.7854C11.8352 20.5873 11.9267 20.3811 12 20.1669C12.054 20.1871 12.1018 20.2335 12.1433 20.3059C12.1927 20.3766 12.2273 20.4547 12.2473 20.5404C12.2782 20.6729 12.2729 20.8261 12.2313 21.0001C12.188 21.1663 12.1008 21.3386 11.97 21.517C11.8373 21.6876 11.6485 21.8467 11.4036 21.9942C11.1665 22.1398 10.8648 22.2554 10.4987 22.3408ZM12.4352 21.7658L12.3234 21.2866L12.4403 21.2594C12.5883 21.2248 12.7123 21.1754 12.8123 21.111C12.9105 21.0388 12.9723 20.934 12.9977 20.7966C13.031 20.6574 13.0194 20.4671 12.9631 20.2256L11.5016 13.9618C11.4471 13.7281 11.372 13.5648 11.2765 13.4721C11.1791 13.3716 11.0722 13.3185 10.9559 13.3128C10.8377 13.2993 10.7163 13.3071 10.5917 13.3362L10.4748 13.3634L10.363 12.8843L12.2211 12.4508L13.9798 19.9883C14.0361 20.2299 14.1061 20.4066 14.1897 20.5185C14.2811 20.6286 14.3868 20.6943 14.5068 20.7156C14.6327 20.7273 14.7697 20.7159 14.9177 20.6813L15.0229 20.6568L15.1347 21.1359L12.4352 21.7658ZM14.8768 21.1961L14.765 20.717L14.8819 20.6897C15.0299 20.6552 15.1539 20.6057 15.2539 20.5413C15.3539 20.4769 15.4214 20.379 15.4564 20.2476C15.4915 20.1162 15.4827 19.9375 15.43 19.7116L14.5711 16.0305C14.5166 15.7967 14.4484 15.6278 14.3666 15.5237C14.2848 15.4195 14.1887 15.3598 14.0783 15.3445C13.9758 15.3273 13.8505 15.336 13.7024 15.3706L13.5856 15.3978L13.4738 14.9187L15.2734 14.4988L16.4213 19.4187C16.4777 19.6602 16.5477 19.8369 16.6313 19.9488C16.7227 20.059 16.8284 20.1247 16.9484 20.146C17.0743 20.1576 17.2113 20.1462 17.3593 20.1117L17.4762 20.0844L17.588 20.5636L14.8768 21.1961ZM14.4379 13.3999C14.2665 13.4399 14.1145 13.422 13.9818 13.3462C13.8491 13.2703 13.7545 13.1117 13.6982 12.8701C13.64 12.6208 13.6546 12.4367 13.7418 12.3178C13.8273 12.1911 13.9557 12.1077 14.1271 12.0677C14.2985 12.0277 14.4544 12.0447 14.5949 12.1187C14.7336 12.185 14.832 12.3427 14.8902 12.592C14.9465 12.8335 14.9281 13.0186 14.8349 13.1471C14.7416 13.2757 14.6093 13.3599 14.4379 13.3999ZM19.8095 20.1685C19.3888 20.2666 18.9894 20.2448 18.6113 20.103C18.2332 19.9612 17.8952 19.6745 17.5973 19.2429C17.3073 18.8095 17.0741 18.2149 16.8978 17.4592C16.7033 16.6256 16.6441 15.9493 16.7202 15.4305C16.7944 14.9038 16.9686 14.5058 17.2425 14.2366C17.5147 13.9595 17.8495 13.7746 18.2468 13.6819C18.5974 13.6001 18.9082 13.5768 19.1793 13.6122C19.4504 13.6475 19.6731 13.7393 19.8474 13.8876C20.0198 14.0281 20.136 14.2269 20.196 14.484C20.2378 14.6631 20.2394 14.8106 20.2007 14.9265C20.162 15.0423 20.078 15.1399 19.9486 15.2194C19.8253 15.2893 19.6545 15.3496 19.4364 15.4005C19.3801 15.159 19.3058 14.9463 19.2136 14.7625C19.1274 14.569 19.0161 14.4265 18.8798 14.3351C18.7494 14.2341 18.5868 14.2063 18.3921 14.2518C18.1739 14.3027 17.9982 14.4299 17.865 14.6335C17.7378 14.8275 17.6728 15.1302 17.6702 15.5415C17.6754 15.951 17.7598 16.5064 17.9234 17.2076C18.0525 17.7607 18.2053 18.222 18.3819 18.5916C18.5644 18.9515 18.7728 19.211 19.0071 19.3699C19.2473 19.5192 19.5115 19.5603 19.7998 19.493C20.0257 19.4403 20.2105 19.352 20.3541 19.2281C20.5037 19.0946 20.6196 18.9403 20.702 18.765C20.7843 18.5897 20.8414 18.4121 20.8734 18.2321C20.9466 18.2643 21.007 18.3118 21.0545 18.3747C21.102 18.4375 21.1385 18.5235 21.1639 18.6325C21.2021 18.7961 21.1876 18.9803 21.1203 19.1849C21.0608 19.3877 20.9249 19.5796 20.7125 19.7606C20.5078 19.9398 20.2068 20.0758 19.8095 20.1685ZM21.3536 19.685L21.2418 19.2058L21.3353 19.184C21.4599 19.1549 21.5722 19.1082 21.6722 19.0438C21.7722 18.9794 21.8436 18.8806 21.8865 18.7474C21.9275 18.6064 21.9198 18.4151 21.8635 18.1736L20.3966 11.8864C20.3421 11.6527 20.267 11.4895 20.1715 11.3968C20.0741 11.2963 19.9672 11.2432 19.8509 11.2375C19.7327 11.224 19.6113 11.2317 19.4866 11.2608L19.3932 11.2826L19.2814 10.8035L21.1161 10.3754L22.1658 14.8746C22.1895 14.9759 22.2165 15.1092 22.2468 15.2747C22.285 15.4383 22.3202 15.6067 22.3524 15.7799C22.3828 15.9453 22.4077 16.0874 22.4272 16.206C22.4544 16.3229 22.4699 16.3891 22.4735 16.4047L23.2487 14.4987C23.3376 14.2808 23.4025 14.1014 23.4435 13.9604C23.4846 13.8194 23.5068 13.7033 23.5101 13.6121C23.5195 13.5114 23.5178 13.4337 23.5051 13.3792C23.4814 13.2779 23.4261 13.2169 23.3391 13.1961C23.2581 13.1657 23.1397 13.1687 22.9839 13.2051L22.8721 12.7259L24.9405 12.2433L25.0523 12.7225C24.9433 12.7479 24.8405 12.8006 24.7442 12.8806C24.6538 12.951 24.565 13.0456 24.4777 13.1646C24.3983 13.2817 24.3204 13.4231 24.244 13.5888C24.1659 13.7467 24.0883 13.9249 24.0115 14.1236L23.6172 15.1274L25.3806 17.1928C25.6169 17.4662 25.8261 17.6762 26.0082 17.8227C26.1962 17.9595 26.3876 18.0052 26.5823 17.9598L26.6291 17.9489L26.7409 18.428L26.6006 18.4607C26.3124 18.528 26.072 18.5718 25.8796 18.592C25.6854 18.6045 25.5129 18.5872 25.3623 18.5402C25.2195 18.4914 25.0744 18.3979 24.9272 18.2597C24.78 18.1216 24.6092 17.9355 24.415 17.7015L23.0734 16.0183L22.6648 17.0132L22.8938 17.9948C22.9465 18.2207 23.0216 18.3839 23.119 18.4845C23.2145 18.5772 23.3214 18.6303 23.4395 18.6438C23.5637 18.6477 23.6842 18.636 23.801 18.6087L23.8478 18.5978L23.9596 19.0769L21.3536 19.685ZM28.1866 18.0907L28.0748 17.6116L28.215 17.5789C28.3553 17.5461 28.4715 17.4985 28.5637 17.4359C28.6558 17.3733 28.7156 17.2772 28.7428 17.1477C28.7683 17.0103 28.7529 16.8208 28.6965 16.5793L27.8431 12.9216C27.7886 12.6878 27.7165 12.5198 27.6269 12.4175C27.5451 12.3134 27.446 12.2584 27.3297 12.2527C27.2193 12.2374 27.094 12.2461 26.9538 12.2788L26.9304 12.2843L26.8186 11.8051L28.3846 11.4398L28.7367 12.368L28.7951 12.3544C28.8346 12.0659 28.9024 11.8283 28.9985 11.6416C29.0946 11.4548 29.2201 11.3064 29.3752 11.1963C29.538 11.0844 29.7324 11.0021 29.9583 10.9494C30.1609 10.9021 30.356 10.8935 30.5438 10.9237C30.7393 10.952 30.9233 11.0364 31.0957 11.1769C31.2664 11.3096 31.4242 11.511 31.5694 11.7811L31.6045 11.7729C31.6385 11.461 31.7065 11.2069 31.8086 11.0106C31.9166 10.8046 32.0521 10.6457 32.2149 10.5338C32.3855 10.42 32.5799 10.3377 32.798 10.2868C33.2811 10.1741 33.6977 10.2699 34.048 10.5743C34.4062 10.8769 34.6788 11.4294 34.866 12.2318L35.5095 14.9897C35.5659 15.2312 35.6359 15.408 35.7195 15.5199C35.8091 15.6222 35.909 15.681 36.0194 15.6964C36.1298 15.7117 36.2551 15.703 36.3953 15.6703L36.4187 15.6648L36.5305 16.1439L34.8009 16.5475L33.8548 12.4924C33.7367 11.986 33.5786 11.608 33.3808 11.3584C33.1907 11.1071 32.9359 11.0186 32.6165 11.0932C32.3672 11.1513 32.1876 11.2795 32.0778 11.4776C31.9679 11.6758 31.9127 11.9145 31.9122 12.194C31.9099 12.4656 31.945 12.7572 32.0177 13.0689L32.623 15.6632C32.6794 15.9047 32.7494 16.0814 32.833 16.1934C32.9148 16.2975 33.0109 16.3572 33.1213 16.3725C33.2394 16.3861 33.3647 16.3774 33.4972 16.3465L33.5322 16.3383L33.644 16.8174L31.9261 17.2182L30.98 13.1631C30.8619 12.6567 30.7039 12.2787 30.506 12.0292C30.3159 11.7778 30.0611 11.6894 29.7417 11.7639C29.4924 11.8221 29.3107 11.9589 29.1967 12.1745C29.0905 12.3882 29.036 12.6473 29.0331 12.952C29.0303 13.2566 29.0679 13.5764 29.1461 13.9114L29.7268 16.4005C29.7814 16.6343 29.8525 16.7984 29.9403 16.8929C30.0281 16.9874 30.131 17.0415 30.2492 17.055C30.3733 17.0589 30.5016 17.0454 30.6341 17.0145L30.6574 17.009L30.7692 17.4881L28.1866 18.0907ZM38.917 15.7104C38.208 15.8758 37.5972 15.7225 37.0846 15.2507C36.572 14.7788 36.1975 14.0365 35.9612 13.0237C35.7049 11.9252 35.6962 11.0605 35.9352 10.4298C36.1801 9.78936 36.6375 9.391 37.3075 9.23468C37.9308 9.08926 38.474 9.21717 38.9373 9.6184C39.3988 10.0118 39.7377 10.6721 39.954 11.5992L40.063 12.0667L36.9896 12.7837C37.201 13.6545 37.4726 14.2729 37.8045 14.6391C38.1423 14.9957 38.5333 15.1222 38.9774 15.0185C39.2968 14.944 39.5408 14.7926 39.7093 14.5644C39.876 14.3283 39.9848 14.0729 40.0358 13.7981C40.1053 13.8148 40.1708 13.8488 40.2321 13.9002C40.2915 13.9438 40.334 14.0202 40.3595 14.1293C40.3958 14.2851 40.3735 14.471 40.2924 14.6871C40.2192 14.9013 40.0695 15.1046 39.8433 15.2971C39.6231 15.4799 39.3143 15.6177 38.917 15.7104ZM38.9244 11.7285C38.7676 11.0915 38.5697 10.5955 38.3308 10.2405C38.0979 9.87587 37.81 9.73355 37.4672 9.81353C37.1166 9.89533 36.8915 10.145 36.7917 10.5626C36.698 10.9706 36.7233 11.5192 36.8677 12.2084L38.9244 11.7285ZM41.3921 12.4466L39.6853 6.60976L40.8889 6.32893L41.9414 12.3185L41.3921 12.4466ZM42.2588 14.8937C42.0874 14.9337 41.9314 14.9167 41.791 14.8427C41.6564 14.759 41.5574 14.5809 41.4937 14.3082C41.4301 14.0355 41.441 13.8358 41.5265 13.7091C41.6179 13.5728 41.7493 13.4846 41.9207 13.4446C42.0765 13.4083 42.2256 13.431 42.3679 13.5128C42.5162 13.585 42.6221 13.7574 42.6857 14.0301C42.7494 14.3028 42.7316 14.5082 42.6324 14.6463C42.5391 14.7749 42.4146 14.8573 42.2588 14.8937Z"/>
<path d="M0.55448 43.273C0.429132 43.5191 0.526983 43.8202 0.773037 43.9455L4.78271 45.9882C5.02877 46.1135 5.32985 46.0157 5.4552 45.7696C5.58055 45.5236 5.48269 45.2225 5.23664 45.0971L1.67248 43.2814L3.48819 39.7173C3.61353 39.4712 3.51568 39.1702 3.26963 39.0448C3.02358 38.9195 2.72249 39.0173 2.59715 39.2634L0.55448 43.273ZM27 22L26.5045 22.0666C26.8875 24.9173 26.7046 27.2159 25.943 29.1656C25.1831 31.1109 23.8288 32.7553 21.7878 34.2683C17.6719 37.3196 10.8699 39.7665 0.845457 43.0245L1 43.5L1.15454 43.9755C11.1301 40.7335 18.1089 38.2404 22.3833 35.0717C24.5375 33.4747 26.0308 31.6891 26.8745 29.5294C27.7165 27.3741 27.8932 24.8927 27.4955 21.9334L27 22Z" />
</g>
<defs>
<clipPath id="clip0_1301_35">
<rect width="48.5683" height="46.1078" transform="translate(0 0.892151)"/>
</clipPath>
</defs>
</svg>
